<?xml version="1.0" encoding="UTF-8"?>
<svg id="Layer_2" data-name="Layer 2" xmlns="http://www.w3.org/2000/svg" viewBox="0 0 781.29 455.56">
  <defs>
    <style>
      .cls-1 {
        fill: #1a1a1a;
      }
    </style>
  </defs>
  <g id="svg8">
    <g id="layer1">
      <g id="g900">
        <path id="path19" class="cls-1" d="m81.19,0c-30.15.12-36.47,58.3-40.05,83.25-1.78,12.37-2.33,30.87-2.46,38.39-1.78,4.95-2.9,10.14-4.15,15.24C18.24,222.04-7.26,295.02,1.95,386.15c1.84,14.46,43.89,14.11,67.27,14.9,10.43.57,20.88.72,31.33.92-.59-3.61-.89-7.26-.92-10.91,0-39.69,32.17-71.86,71.86-71.86,39.69,0,71.86,32.17,71.86,71.86-.02,3.66-.32,7.31-.89,10.93h326.27c-.59-3.61-.9-7.27-.93-10.93,0-39.68,32.17-71.86,71.85-71.86,39.69,0,71.86,32.17,71.86,71.86-.02,3.49-.3,6.98-.83,10.44,19.52.25,39.04.41,58.56.51,3.02.12,6.75-.06,9.15-.13,2.58.25,2.27-11.52,2.48-22.71.41-21.89,2.51-20.45-9.13-20.75-3.76-22.77-1.96-32.81-6.63-55.42-1.58-7.62-9.52-22.28-16.78-31.82-12.03-15.81-29.19-18.1-43.38-40.86-11.53-18.47-24.31-36.17-38.22-52.93-16.71-20.44-34.68-39.84-53.8-58.04-.4-.37-.8-.73-1.2-1.09,5.89-.07,11.52-.16,16.8-.25h25.86l-.02-12.9c-.01-11.33-1.03-15.8-3.4-23.28-2.4-7.6-7.19-16.37-10.78-21.33-18.2-25.12-50.58-58.84-66.61-59.73l-246.2-.38-246.2-.38Zm37.3,31.86h170.57c6.87,0,12.4,5.53,12.4,12.4v25.35c0,6.87-5.53,12.4-12.4,12.4H118.49c-6.87,0-12.4-5.53-12.4-12.4v-25.35c0-6.87,5.53-12.4,12.4-12.4Zm-18.02,111.16h183.74c9.85,0,17.79,7.93,17.79,17.79v73.45c0,9.85-7.93,17.79-17.79,17.79H100.47c-9.85,0-17.79-7.93-17.79-17.79v-73.45c0-9.85,7.93-17.79,17.79-17.79Zm253.06.08h92.26c11.39,0,20.56,9.17,20.56,20.56v200.96c0,11.39-9.17,20.56-20.56,20.56h-92.26c-11.39,0-20.56-9.17-20.56-20.56v-200.96c0-11.39,9.17-20.56,20.56-20.56h0Zm149.99,4.05h92.56c17.36,17.93,35.07,35.61,50.5,55.28,9.26,11.83,18.48,23.8,25.6,37.07.33.94,1.28,1.83.91,2.9-.94,1.35-2.76,1.22-4.21,1.3-22.73,1.46-45.52,1.22-68.28,1.34l-66.21.11c-18.59-.8-26.82.11-28.95-6.2-2.42-7.56-1.71-43.23-1.91-46.79v-45.02Zm-146.64.83c-10.56,0-19.07,8.8-19.07,19.73v192.8c0,10.93,8.5,19.73,19.07,19.73h85.55c10.56,0,19.07-8.8,19.07-19.73v-192.8c0-10.93-8.5-19.73-19.07-19.73h-85.55Zm3.53,7.04h79.04c8.15,0,14.7,6.12,14.7,13.71v64.73c0,7.6-6.56,13.71-14.7,13.71h-79.04c-8.15,0-14.7-6.12-14.7-13.71v-64.73c0-7.6,6.56-13.71,14.7-13.71Zm75.19,109.66h14.9c1.38,0,2.48,1.11,2.48,2.48s-1.11,2.49-2.48,2.49h-14.9c-1.38,0-2.48-1.11-2.48-2.49s1.11-2.48,2.48-2.48Z"/>
        <path id="path29" class="cls-1" d="m172.18,326.57c-35.62,0-64.49,28.88-64.49,64.5h0c0,35.62,28.88,64.49,64.49,64.49,35.62,0,64.5-28.87,64.5-64.49h0c0-35.62-28.87-64.5-64.49-64.5h0Zm0,31.78c18.07,0,32.71,14.64,32.71,32.71h0c0,18.07-14.65,32.71-32.71,32.71h0c-18.06,0-32.71-14.65-32.71-32.71,0-18.07,14.64-32.71,32.71-32.71h0Z"/>
        <path id="path883" class="cls-1" d="m639.66,326.57c-35.62,0-64.49,28.88-64.49,64.5h0c0,35.62,28.88,64.49,64.49,64.49,35.62,0,64.5-28.87,64.5-64.49h0c0-35.62-28.87-64.5-64.49-64.5h0Zm0,31.78c18.07,0,32.71,14.64,32.71,32.71h0c0,18.07-14.65,32.71-32.71,32.71h0c-18.07,0-32.71-14.65-32.71-32.71,0-18.07,14.64-32.71,32.71-32.71h0Z"/>
      </g>
    </g>
  </g>
</svg>