<?xml version="1.0" encoding="UTF-8"?>
<svg id="Layer_2" data-name="Layer 2" xmlns="http://www.w3.org/2000/svg" viewBox="0 0 108.13 67.65">
  <defs>
    <style>
      .cls-1 {
        fill: #3a2c60;
      }

      .cls-2 {
        fill: #231f20;
      }
    </style>
  </defs>
  <g id="Layer_1-2" data-name="Layer 1">
    <g>
      <g>
        <path class="cls-1" d="M1,41.73c.55,0,1-.45,1-1v-5.11c0-.55-.45-1-1-1s-1,.45-1,1v5.11c0,.55,.45,1,1,1Z"/>
        <path class="cls-1" d="M104.79,40.44l-6.03-4.6-8.01-12.15h12.15c1.32,0,2.55-.65,3.28-1.75,.74-1.09,.88-2.48,.38-3.7l-2.24-5.53c-1.75-4.3-5.87-7.08-10.52-7.08h-23.79l-4.71-4.06c-1.17-1.01-2.66-1.56-4.2-1.56h-25.11c-1.69,0-3.06,1.37-3.06,3.06v2.57H7.01C3.15,5.62,0,8.77,0,12.64V30.98c0,.55,.45,1,1,1s1-.45,1-1v-7.29H88.36l3.27,4.96h-7.4c-.55,0-1,.45-1,1v9.93c0,.55,.45,1,1,1h17.45l1.91,1.45c1.6,1.22,2.56,3.15,2.56,5.16v8.48c0,.78-.63,1.41-1.41,1.41h-4.16c-.5-4.81-4.58-8.57-9.52-8.57s-9.02,3.76-9.52,8.57h-3.72V29.65c0-.55-.45-1-1-1h-16.71c-.55,0-1,.45-1,1v27.43h-21.47c-.5-4.81-4.58-8.57-9.52-8.57s-9.02,3.76-9.52,8.57H3.41c-.78,0-1.41-.63-1.41-1.41v-10.11c0-.55-.45-1-1-1s-1,.45-1,1v10.11c0,1.88,1.53,3.41,3.41,3.41h15.18c.5,4.81,4.58,8.57,9.52,8.57s9.02-3.76,9.52-8.57h43.89c.5,4.81,4.58,8.57,9.52,8.57s9.02-3.76,9.52-8.57h4.16c1.88,0,3.41-1.53,3.41-3.41v-8.48c0-2.63-1.25-5.16-3.34-6.75ZM34.95,3.06c0-.58,.47-1.06,1.06-1.06h25.11c1.06,0,2.09,.38,2.89,1.07l2.95,2.55H34.95V3.06ZM2,21.69V12.64c0-2.76,2.25-5.01,5.01-5.01H93.8c3.83,0,7.23,2.29,8.67,5.84l2.24,5.53c.25,.61,.18,1.28-.19,1.83-.37,.55-.96,.86-1.62,.86H2Zm83.22,16.89v-7.93h7.72l4.24,6.43c.06,.09,.14,.18,.23,.25l1.64,1.25h-13.82Zm-57.11,27.08c-4.18,0-7.57-3.4-7.57-7.57s3.4-7.57,7.57-7.57,7.57,3.4,7.57,7.57-3.4,7.57-7.57,7.57Zm32.99-8.57V30.65h14.71v26.43h-14.71Zm29.94,8.57c-4.17,0-7.56-3.39-7.57-7.56,0,0,0,0,0-.01s0,0,0-.01c0-4.17,3.4-7.56,7.57-7.56s7.57,3.4,7.57,7.57-3.4,7.57-7.57,7.57Z"/>
        <circle class="cls-1" cx="28.11" cy="58.08" r="3"/>
        <path class="cls-1" d="M91.04,55.08c-1.66,0-3,1.34-3,3s1.34,3,3,3,3-1.34,3-3-1.34-3-3-3Z"/>
        <path class="cls-1" d="M29.46,40.57c.55,0,1-.45,1-1v-9.93c0-.55-.45-1-1-1H8.47c-.55,0-1,.45-1,1v9.93c0,.55,.45,1,1,1H29.46ZM9.47,30.65H28.46v7.93H9.47v-7.93Z"/>
        <path class="cls-1" d="M52.91,40.57c.55,0,1-.45,1-1v-9.93c0-.55-.45-1-1-1h-15.13c-.55,0-1,.45-1,1v9.93c0,.55,.45,1,1,1h15.13Zm-14.13-9.93h13.13v7.93h-13.13v-7.93Z"/>
        <path class="cls-1" d="M73.25,32.56h-9.59c-.55,0-1,.45-1,1v7.8c0,.55,.45,1,1,1h9.59c.55,0,1-.45,1-1v-7.8c0-.55-.45-1-1-1Zm-1,7.8h-7.59v-5.8h7.59v5.8Z"/>
        <path class="cls-1" d="M64.03,43.65c-.56,0-1.02,.45-1.02,1.02s.45,1.02,1.02,1.02,1.02-.45,1.02-1.02-.45-1.02-1.02-1.02Z"/>
      </g>
      <g>
        <path class="cls-2" d="M1,41.73c.55,0,1-.45,1-1v-5.11c0-.55-.45-1-1-1s-1,.45-1,1v5.11c0,.55,.45,1,1,1Z"/>
        <path class="cls-2" d="M104.79,40.44l-6.03-4.6-8.01-12.15h12.15c1.32,0,2.55-.65,3.28-1.75,.74-1.09,.88-2.48,.38-3.7l-2.24-5.53c-1.75-4.3-5.87-7.08-10.52-7.08h-23.79l-4.71-4.06c-1.17-1.01-2.66-1.56-4.2-1.56h-25.11c-1.69,0-3.06,1.37-3.06,3.06v2.57H7.01C3.15,5.62,0,8.77,0,12.64V30.98c0,.55,.45,1,1,1s1-.45,1-1v-7.29H88.36l3.27,4.96h-7.4c-.55,0-1,.45-1,1v9.93c0,.55,.45,1,1,1h17.45l1.91,1.45c1.6,1.22,2.56,3.15,2.56,5.16v8.48c0,.78-.63,1.41-1.41,1.41h-4.16c-.5-4.81-4.58-8.57-9.52-8.57s-9.02,3.76-9.52,8.57h-3.72V29.65c0-.55-.45-1-1-1h-16.71c-.55,0-1,.45-1,1v27.43h-21.47c-.5-4.81-4.58-8.57-9.52-8.57s-9.02,3.76-9.52,8.57H3.41c-.78,0-1.41-.63-1.41-1.41v-10.11c0-.55-.45-1-1-1s-1,.45-1,1v10.11c0,1.88,1.53,3.41,3.41,3.41h15.18c.5,4.81,4.58,8.57,9.52,8.57s9.02-3.76,9.52-8.57h43.89c.5,4.81,4.58,8.57,9.52,8.57s9.02-3.76,9.52-8.57h4.16c1.88,0,3.41-1.53,3.41-3.41v-8.48c0-2.63-1.25-5.16-3.34-6.75ZM34.95,3.06c0-.58,.47-1.06,1.06-1.06h25.11c1.06,0,2.09,.38,2.89,1.07l2.95,2.55H34.95V3.06ZM2,21.69V12.64c0-2.76,2.25-5.01,5.01-5.01H93.8c3.83,0,7.23,2.29,8.67,5.84l2.24,5.53c.25,.61,.18,1.28-.19,1.83-.37,.55-.96,.86-1.62,.86H2Zm83.22,16.89v-7.93h7.72l4.24,6.43c.06,.09,.14,.18,.23,.25l1.64,1.25h-13.82Zm-57.11,27.08c-4.18,0-7.57-3.4-7.57-7.57s3.4-7.57,7.57-7.57,7.57,3.4,7.57,7.57-3.4,7.57-7.57,7.57Zm32.99-8.57V30.65h14.71v26.43h-14.71Zm29.94,8.57c-4.17,0-7.56-3.39-7.57-7.56,0,0,0,0,0-.01s0,0,0-.01c0-4.17,3.4-7.56,7.57-7.56s7.57,3.4,7.57,7.57-3.4,7.57-7.57,7.57Z"/>
        <circle class="cls-2" cx="28.11" cy="58.08" r="3"/>
        <path class="cls-2" d="M91.04,55.08c-1.66,0-3,1.34-3,3s1.34,3,3,3,3-1.34,3-3-1.34-3-3-3Z"/>
        <path class="cls-2" d="M29.46,40.57c.55,0,1-.45,1-1v-9.93c0-.55-.45-1-1-1H8.47c-.55,0-1,.45-1,1v9.93c0,.55,.45,1,1,1H29.46ZM9.47,30.65H28.46v7.93H9.47v-7.93Z"/>
        <path class="cls-2" d="M52.91,40.57c.55,0,1-.45,1-1v-9.93c0-.55-.45-1-1-1h-15.13c-.55,0-1,.45-1,1v9.93c0,.55,.45,1,1,1h15.13Zm-14.13-9.93h13.13v7.93h-13.13v-7.93Z"/>
        <path class="cls-2" d="M73.25,32.56h-9.59c-.55,0-1,.45-1,1v7.8c0,.55,.45,1,1,1h9.59c.55,0,1-.45,1-1v-7.8c0-.55-.45-1-1-1Zm-1,7.8h-7.59v-5.8h7.59v5.8Z"/>
        <path class="cls-2" d="M64.03,43.65c-.56,0-1.02,.45-1.02,1.02s.45,1.02,1.02,1.02,1.02-.45,1.02-1.02-.45-1.02-1.02-1.02Z"/>
      </g>
    </g>
  </g>
</svg>