<?xml version="1.0" encoding="utf-8"?>
<!-- Generator: Adobe Illustrator 22.0.1, SVG Export Plug-In . SVG Version: 6.00 Build 0)  -->
<svg version="1.1" id="Layer_1" xmlns="http://www.w3.org/2000/svg" xmlns:xlink="http://www.w3.org/1999/xlink" x="0px" y="0px"
	 viewBox="0 0 612 792" style="enable-background:new 0 0 612 792;" xml:space="preserve">
<style type="text/css">
	.st0{font-family:'Montserrat-Bold';}
	.st1{font-size:58.65px;}
</style>
<g>
	<path d="M-125.9,391.6c0-7.7-0.5-15.4,0.1-23c0.5-6.2,0.3-12.5,1.6-18.7c0.8-3.8,0.8-7.9,1.2-11.8c0.6-6.4,1.8-12.6,2.8-18.9
		c1.2-7.9,2.9-15.8,4.4-23.6c1.1-5.8,2.5-11.5,4.2-17.1c3.4-11.1,6.8-22.1,10.6-33.1c2.8-8.2,6.1-16.2,9.4-24.2
		c4.3-10.5,9.1-20.8,14.5-30.7c5.2-9.5,10.2-19.1,16.3-28.1c6.7-10,13.2-20,20.2-29.8c4.3-6,9.2-11.7,14-17.3
		c6.1-7.2,12.1-14.5,18.6-21.3c6-6.4,12.6-12.3,19-18.3c0.6-0.6,1.2-1.2,1.8-1.7c7-7,14.8-13.2,22.5-19.5c11-9,22.4-17.3,34.3-25
		c7.4-4.9,15.1-9.4,22.7-13.8C100,11,107.9,6.6,116,2.6c15.2-7.4,30.7-13.9,46.6-19.5c15.7-5.5,31.8-9.9,47.9-13.8
		c7.8-1.9,15.7-2.9,23.6-4.3c5.6-1,11.3-2.1,16.9-2.8c4.4-0.6,8.9-0.5,13.3-1.2c6.5-1.1,13.2-0.3,19.7-1.7c1-0.2,2-0.1,3-0.1
		c13.2,0,26.3-0.1,39.5,0c3.3,0,6.5,0.6,9.8,0.8c3.3,0.3,6.5,0,9.8,0.8c3.8,0.9,7.8,0.8,11.8,1.2c3.9,0.4,7.9,0.6,11.8,1.2
		c3.2,0.4,6.4,1.2,9.6,1.8c6.1,1.1,12.3,1.9,18.4,3.2c12.3,2.7,24.4,5.8,36.4,9.5c16.3,5,32.3,10.7,47.7,17.9
		c11.2,5.2,22.3,10.5,33.2,16.2c14.4,7.6,28.1,16.4,41.4,25.7c8.8,6.1,17.2,12.7,25.5,19.5c7,5.8,13.6,12.1,20.4,18.2
		c3.3,3,6.7,5.9,9.9,9.1c5.8,5.9,11.7,11.8,17.1,18.1c10.5,12.1,20.6,24.4,29.9,37.5c7.7,10.9,14.9,22.1,21.7,33.5
		c7.8,13,14.5,26.6,20.9,40.3c7.8,16.8,14.2,34.1,19.5,51.8c3.8,12.6,7.3,25.4,9.6,38.5c1,6.1,2.6,12.1,3.7,18.2
		c0.6,3.4,0.8,6.9,1.2,10.3c0.6,4.2,1.2,8.4,1.8,12.6c0,0.2,0,0.3,0,0.5c0.3,3.9,0.7,7.9,1,11.8c1.4,17.9,1.2,35.9,0.9,53.8
		c0,3.4-0.6,6.9-0.8,10.3c-0.3,3.3,0.3,6.6-0.9,9.8c-0.4,1-0.1,2.3-0.1,3.5c-0.1,5.1-0.8,10.1-1.9,15.1c-0.5,2.6-0.8,5.2-1.1,7.8
		c-0.8,9.7-3.2,19-5.1,28.5c-2.4,11.7-5.5,23.2-9.1,34.5c-3.2,10.3-6.7,20.5-10.6,30.5c-6.2,16.1-13.7,31.7-21.8,46.9
		c-8.5,15.9-18,31.4-28.8,45.9c-5.7,7.7-11.4,15.3-17.2,22.9c-1.8,2.4-3.7,4.6-5.7,6.8c-4.6,5-9.2,10-13.8,15
		c-4.2,4.5-8.2,9.2-12.6,13.4c-7.2,6.9-14.5,13.7-22.1,20.1c-15.5,13.1-31.7,25.1-48.9,36c-6.2,3.9-12.7,7.6-19.1,11.3
		c-7,4-14,8-21.2,11.6c-7,3.5-14.2,6.7-21.5,9.8c-14.9,6.3-30.1,11.7-45.6,16.4c-10.5,3.2-21,6-31.8,8.1c-7.9,1.5-15.6,3.4-23.5,4.8
		c-6.1,1-12.4,1.4-18.6,2.2c-7.8,1.1-15.7,1.4-23.6,2.1c-14.3,1.3-28.6,0.7-42.8,0.7c-7.3,0-14.6-0.5-21.8-1
		c-6.2-0.5-12.4-1.1-18.6-2c-5.3-0.7-10.6-1.8-15.9-2.7c-4.2-0.7-8.4-1.3-12.6-2.1c-6.6-1.3-13.2-2.5-19.7-4.1
		c-12.5-3.1-24.9-6.5-37.1-10.8c-10.6-3.8-21.3-7.6-31.5-12.3c-8.4-3.8-16.8-7.6-25-11.7c-11.2-5.6-21.9-12-32.6-18.4
		c-11.7-7.1-22.7-15.2-33.7-23.2c-6.8-4.9-13-10.7-19.5-16.1c-11.1-9.2-21.6-19.2-31.5-29.7c-7.9-8.5-15.8-16.9-22.7-26.2
		c-5.7-7.7-11.8-15.1-17.4-22.8c-4-5.4-7.7-11.1-11.2-16.8c-5.4-8.7-10.7-17.3-15.6-26.2c-4.1-7.5-7.8-15.2-11.4-23
		c-3.6-7.9-6.7-16-10.2-24c-5.1-12-9.3-24.4-12.8-37c-2.9-10.4-5.6-20.8-7.9-31.3c-1.7-7.8-2.8-15.8-4.2-23.7
		c-1.4-8.1-2.6-16.2-3.2-24.4c-0.3-4.3-0.3-8.6-0.9-12.8C-126.7,412.1-125.6,401.8-125.9,391.6z M-112,391.6
		c0.3,9.3-0.4,18.5,0.7,27.8c0.9,7.5,1,15.1,2.2,22.6c0.6,3.9,0.6,7.9,1.2,11.8c1.4,8.2,3.3,16.3,4.8,24.5c2.4,12.9,6,25.4,9.8,37.9
		c2.1,7,4.8,13.9,7.2,20.8c4.4,12.7,10,24.9,15.7,37.1c6.4,13.6,13.9,26.5,21.7,39.3c4.6,7.6,9.6,15,14.9,22.1
		c6.2,8.3,12.2,16.8,19.2,24.5c6.8,7.4,13.1,15.3,20,22.7c5.3,5.7,11.3,10.7,16.9,16.2c5.4,5.3,11.1,10.4,17.1,15.1
		c8.3,6.5,16.3,13.5,24.9,19.5c16.7,11.7,34,22.5,52.2,31.6c8.1,4,16.3,7.8,24.5,11.4c6.6,2.9,13.1,6,20,8.3
		c21.6,7.4,43.3,14.4,66,18.4c10.5,1.8,20.9,3.8,31.5,5c3.8,0.4,7.7,0.3,11.3,1.1c3.3,0.8,6.6,0.5,9.8,0.8c3.4,0.3,6.9,0.9,10.3,0.8
		c13.9-0.1,27.9,0.9,41.8-0.8c4.4-0.5,8.9-0.5,13.3-0.9c8.2-0.8,16.3-2,24.4-3.1c7.6-1,15.1-2.6,22.7-4.1
		c12.4-2.4,24.5-5.6,36.5-9.2c9.2-2.8,18.3-6.1,27.3-9.5c8-3,15.9-6.1,23.6-9.8c11.1-5.3,22.1-11,32.9-16.9
		c7.8-4.2,15.4-8.8,22.8-13.7c12.2-8.1,24.1-16.6,35.4-26c8.1-6.8,16.4-13.4,23.8-21c9.1-9.3,18.2-18.5,27-28
		c5.9-6.4,11.7-13.1,16.9-20.1c7.4-9.9,14.5-19.9,21.2-30.3c5.8-8.9,11.2-18.2,16.3-27.6c9-16.8,17-34.1,23.6-52
		c4.8-12.9,9-25.9,12.4-39.2c2.4-9.3,4.6-18.7,6.4-28.2c1.7-8.8,3-17.7,4.5-26.6c1.1-6.3,1.6-12.7,2-19.1c0.5-7.4,0.9-14.9,1-22.3
		c0.2-14.3,0.3-28.6-1-42.8c-0.1-0.7,0-1.3-0.1-2c-0.6-4.5-1.3-9.1-1.8-13.6c-0.7-6-1.2-12.1-2.2-18.1c-1.4-7.9-3.3-15.6-4.8-23.5
		c-2.2-11.6-5.4-22.8-8.9-34.1c-2.3-7.3-4.5-14.7-7.3-21.8c-4-10.2-8.2-20.4-12.8-30.3c-4.8-10.3-10.2-20.3-15.5-30.3
		c-2.7-5.1-5.7-10-8.8-14.8c-8.6-13.3-17.1-26.5-27.4-38.6c-6.2-7.3-11.8-15.1-18.4-22c-13-13.5-25.9-27.2-40.7-38.9
		c-8.5-6.8-16.7-14-25.6-20.2c-17.1-12-34.7-23.2-53.5-32.5c-9.9-4.9-19.7-9.9-29.9-14c-6.7-2.6-13.3-5.5-20.1-7.9
		c-6.1-2.2-12.3-4.3-18.6-6.1c-11.2-3.1-22.4-5.9-33.7-8.6c-5.5-1.4-11.2-2.5-16.8-3.4c-5.3-0.9-10.8-1.3-16.1-2.2
		c-5.4-0.9-10.7-1.8-16.1-1.9c-0.8,0-1.7,0.1-2.5-0.1c-6.1-1.8-12.5,0-18.6-1.8c-13.8,0.3-27.6-0.9-41.3,0.8
		c-4.9,0.6-9.9,0.2-14.8,1c-6.8,1.1-13.7,1.5-20.6,2.2c-2.8,0.3-5.6,0.6-8.3,1.1c-6.1,1.2-12.1,2.6-18.2,3.8
		c-11.9,2.4-23.6,5.2-35.1,8.9c-8.9,2.8-17.6,6.1-26.4,9c-13.3,4.3-25.8,10.5-38.4,16.4c-7.1,3.3-13.9,7.4-20.8,11.3
		c-6.6,3.7-13.1,7.5-19.5,11.6c-13,8.4-25.5,17.5-37.6,27.2c-9.8,7.9-19,16.4-28.3,24.9c-4.9,4.4-9.1,9.7-13.8,14.4
		c-8,8-15.3,16.5-22.2,25.4c-5,6.4-9.9,12.7-14.6,19.3c-9.9,14.1-19,28.7-27.3,43.9c-5.6,10.3-10.5,20.8-15.4,31.4
		c-3.8,8.1-6.4,16.8-9.7,25.1c-4.8,12.2-8.3,24.8-11.6,37.4c-2.9,11.2-5.5,22.5-7.2,34c-1,6.3-2.2,12.6-2.8,18.9
		c-0.4,3.9-0.4,7.9-1.2,11.8c-1.3,6-1,12.1-1.6,18.2C-112.4,377.9-112,384.8-112,391.6z"/>
	<path d="M583.1,575.8c-38.8,0-76.9,0-115.1,0c-0.3-0.9-0.8-1.6-0.8-2.4c-0.1-1.3,0-2.7,0-4c0-83.7,0-167.3,0-251
		c0-5-0.9-9.8-1.9-14.6c-1.6-7.8-13.2-11.6-20-5.6c-3,2.7-5.3,6-6.1,9.9c-1.1,5.5-2.1,11-2.1,16.6c0,81.8,0,163.6,0,245.5
		c0,1.8,0,3.6,0,5.6c-38.5,0-76.6,0-114.9,0c-0.4-0.7-0.9-1.4-1-2.1c-0.2-1.3-0.1-2.7-0.1-4c0-82.8,0-165.6,0-248.5
		c0-5.5-0.2-10.9-2-16.1c-0.7-2-1.5-4-2.3-6.2c-1.8-1-3.6-2.3-5.6-2.9c-6.7-1.9-12.6,0.8-16.1,7c-1,1.9-1.7,3.8-2.2,6
		c-1.1,4.5-1.9,9-1.8,13.6c0,35.8,0,71.7,0,107.5c0,1.9,0.9,4.1-1.3,5.6c-38,0-76.1,0-114.7,0c0-1.3,0-2.4,0-3.5
		c0-47.2,0-94.3,0-141.5c0-10.4,1.9-20.6,4.4-30.6c3.8-14.9,10.9-28.1,20.2-40.1c7.6-9.7,16.9-17.5,27.4-24.1
		c9-5.6,18.7-9.5,28.9-12c6.9-1.7,13.8-2.5,20.9-3.2c5-0.5,9.9-0.9,14.8-0.6c16.9,0.8,33.2,4.1,48,12.8c10.3,6.1,19.5,13.5,27,22.9
		c3.8,4.8,7.5,9.6,10.7,14.8c0.3,0.5,0.9,0.9,1.6,1.5c1-1,2.1-1.8,2.8-2.8c5.7-8.6,12.2-16.5,19.8-23.4
		c11.8-10.8,25.4-18.6,41.2-22.1c6.7-1.5,13.4-3,20.4-3c2.4,0,4.9-0.7,7.3-0.8c8.8-0.3,17.4,0.6,26.1,1.7c7.2,0.9,14.1,2.8,20.9,5
		c10,3.2,18.7,8.6,26.9,15c9.1,7.2,15.9,16.1,21.6,26.1c6.3,11.2,10.5,23.2,13.1,35.8c1.3,6.6,2.2,13.2,3.1,19.9
		c1,7.8,0.8,15.6,0.8,23.3c0.1,87.8,0,175.6,0,263.5C583.1,572.1,583.1,573.8,583.1,575.8z"/>
	<path d="M290.8,463.3c0,37.1,0,74.4,0,111.7c-0.7,0.4-1.2,0.8-1.8,0.9c-1,0.1-2,0.1-3,0.1c-45.2,0-90.3,0.1-135.5-0.1
		c-7.3,0-14.7-1.1-22-2.4c-6.1-1.1-12.1-2.5-18.1-4.4c-3.4-1.1-6.9-2-10.2-3.5c-8.7-3.9-17.3-8.1-24.9-14
		c-7.1-5.5-13.5-11.7-19.2-18.7c-12.2-14.9-20-31.8-24.3-50.5c-2-8.8-3.3-17.7-4.2-26.7c-1.1-11.6-0.7-23.2-0.7-34.8
		c-0.1-75.2,0-150.3,0-225.5c0-1.6,0-3.3,0-4.9c4.1-0.7,106.8-1,115.9-0.3c0.1,1.7,0.2,3.5,0.2,5.3c0,74.5,0,149,0.1,223.5
		c0,8,0.9,16.1,3,23.9c2.3,8.8,8.1,14.6,16.8,17c5.5,1.5,11.2,2.3,17.1,2.3c35.2-0.1,70.3-0.1,105.5,0
		C287.2,462.1,289.2,461.4,290.8,463.3z"/>
</g>
<text transform="matrix(1 0 0 1 22.9758 641.6665)" class="st0 st1">DANCE COMPANY</text>
</svg>
