<?xml version="1.0" encoding="UTF-8"?>
<svg id="Layer_1" data-name="Layer 1" xmlns="http://www.w3.org/2000/svg" viewBox="0 0 180 145.87">
  <path d="m38,107.01c-9.02-19.08-17.97-38.19-26.91-57.31-3.39-7.24-6.72-14.5-10.1-21.75l-.99-2.29c2.72,0,6.97.02,6.97.02,0,0,37.74.02,56.62.02.76,0,1.52,0,2.53,0-1.08,2.21-2.08,4.19-3.03,6.19-2.35,4.92-4.65,9.86-7.09,14.74-.26.51-.44.93-.44.93,0,0-13.79.02-19.96,0-.32,0-.63.06-1.14.12,5.52,11.6,10.98,23.06,16.55,34.76C64.04,54.91,76.97,27.6,90.03,0c13.01,27.5,25.95,54.84,39.02,82.45,5.56-11.66,16.65-34.83,16.65-34.83,0,0-1.13-.03-1.56-.03-5.92,0-19.7.03-19.7.03,0,0-.19-.4-.81-1.71-3.07-6.51-9.72-20.22-9.72-20.22l-.03-.07h1.27s40.41,0,60.62.01c1.37,0,4.23,0,4.23,0l-.25.57-.09.22s-25.31,54.43-37.67,80.77c-.26.55-.52,1.1-.52,1.1,0,0-16.97.06-24.82-.02-8.65-18.4-17.82-37.88-26.43-56.3-.19-.4-.23-.46-.23-.46,0,0-1.43,3.15-2.09,4.55-7.91,16.93-15.8,33.87-23.79,50.76-.34.71-.7,1.44-.7,1.44,0,0-17.58.1-24.83.01"/>
  <path d="m5.64,127.57l1.98,4.62s2.28,4.97,3.62,7.8c2.06-4.26,6.04-12.47,6.04-12.47h5.26s.6,1.22.6,1.22l5.33,10.91.1.23s1.26-2.62,1.82-3.79c1.19-2.52,2.36-5.05,3.59-7.55.19-.4.48-.97.48-.97,0,0,3.68,0,5.64,0-.82,1.65-1.56,3.06-2.23,4.5-1.98,4.22-6.36,13.71-6.36,13.71l-.03.05h-5.74l-5.47-11.64-.31-.65-5.78,12.29-5.75-.02s-.29-.6-.5-1.06c-2.33-4.98-7.31-15.87-7.31-15.87l-.59-1.31h5.64Z"/>
  <path d="m180,132.81h-8.65v12.94h-5.23v-12.94h-8.95v-5.25h22.83v5.25Z"/>
  <path d="m135.44,134.13v-6.48h5.19v18.14h-5.11v-6.22h-13.16v6.23h-5.03v-18.14h5.02v6.47h13.08Z"/>
  <path d="m111.49,132.84h-15.32v7.94h15.28v5.02h-20.38v-18.15h20.42v5.19Z"/>
  <path d="m76.34,145.81h-5.06v-12.97c-2.36,0-8.81.03-8.81.03l-.04-.08-2.55-5.14h25.42v5.14h-8.96v13.02Z"/>
  <path d="m44.09,145.82h-5.53c2.9-6.15,5.71-12.13,8.62-18.31h5.46l.49,1,7.69,16.11.57,1.15h-5.63c-1.84-3.88-3.74-7.88-5.8-12.22-2.05,4.29-3.96,8.29-5.86,12.27Z"/>
  <rect x="146.5" y="127.65" width="4.93" height="18.21"/>
</svg>